<?xml version="1.0" encoding="UTF-8"?>
<!--Generator: Apple Native CoreSVG 149-->
<!DOCTYPE svg
PUBLIC "-//W3C//DTD SVG 1.1//EN"
       "http://www.w3.org/Graphics/SVG/1.1/DTD/svg11.dtd">
<svg version="1.1" xmlns="http://www.w3.org/2000/svg" xmlns:xlink="http://www.w3.org/1999/xlink" width="3300" height="2200">
 <!--glyph: "uni1002F3.medium", point size: 100.000000, font version: "Version 16.0d12e3", template writer version: "8"-->
 <g id="Notes">
  <rect height="2200" id="artboard" style="fill:white;opacity:1" width="3300" x="0" y="0"/>
  <line id="" style="fill:none;stroke:black;opacity:1;stroke-width:0.5;" x1="263" x2="3036" y1="292" y2="292"/>
  <text style="stroke:none;fill:black;font-family:-apple-system,&quot;SF Pro Display&quot;,&quot;SF Pro Text&quot;,Helvetica,sans-serif;font-weight:bold;" transform="matrix(1 0 0 1 263 322)">Weight/Scale Variations</text>
  <text style="stroke:none;fill:black;font-family:-apple-system,&quot;SF Pro Display&quot;,&quot;SF Pro Text&quot;,Helvetica,sans-serif;text-anchor:middle;" transform="matrix(1 0 0 1 559.711 322)">Ultralight</text>
  <text style="stroke:none;fill:black;font-family:-apple-system,&quot;SF Pro Display&quot;,&quot;SF Pro Text&quot;,Helvetica,sans-serif;text-anchor:middle;" transform="matrix(1 0 0 1 856.422 322)">Thin</text>
  <text style="stroke:none;fill:black;font-family:-apple-system,&quot;SF Pro Display&quot;,&quot;SF Pro Text&quot;,Helvetica,sans-serif;text-anchor:middle;" transform="matrix(1 0 0 1 1153.13 322)">Light</text>
  <text style="stroke:none;fill:black;font-family:-apple-system,&quot;SF Pro Display&quot;,&quot;SF Pro Text&quot;,Helvetica,sans-serif;text-anchor:middle;" transform="matrix(1 0 0 1 1449.84 322)">Regular</text>
  <text style="stroke:none;fill:black;font-family:-apple-system,&quot;SF Pro Display&quot;,&quot;SF Pro Text&quot;,Helvetica,sans-serif;text-anchor:middle;" transform="matrix(1 0 0 1 1746.56 322)">Medium</text>
  <text style="stroke:none;fill:black;font-family:-apple-system,&quot;SF Pro Display&quot;,&quot;SF Pro Text&quot;,Helvetica,sans-serif;text-anchor:middle;" transform="matrix(1 0 0 1 2043.27 322)">Semibold</text>
  <text style="stroke:none;fill:black;font-family:-apple-system,&quot;SF Pro Display&quot;,&quot;SF Pro Text&quot;,Helvetica,sans-serif;text-anchor:middle;" transform="matrix(1 0 0 1 2339.98 322)">Bold</text>
  <text style="stroke:none;fill:black;font-family:-apple-system,&quot;SF Pro Display&quot;,&quot;SF Pro Text&quot;,Helvetica,sans-serif;text-anchor:middle;" transform="matrix(1 0 0 1 2636.69 322)">Heavy</text>
  <text style="stroke:none;fill:black;font-family:-apple-system,&quot;SF Pro Display&quot;,&quot;SF Pro Text&quot;,Helvetica,sans-serif;text-anchor:middle;" transform="matrix(1 0 0 1 2933.4 322)">Black</text>
  <line id="" style="fill:none;stroke:black;opacity:1;stroke-width:0.5;" x1="263" x2="3036" y1="1903" y2="1903"/>
  <g id="" transform="matrix(1 0 0 1 263 1933)">
   <path d="M9.24805 0.830078C13.5547 0.830078 17.1387-2.74414 17.1387-7.05078C17.1387-11.3574 13.5449-14.9316 9.23828-14.9316C4.94141-14.9316 1.36719-11.3574 1.36719-7.05078C1.36719-2.74414 4.95117 0.830078 9.24805 0.830078ZM9.24805-0.654297C5.70312-0.654297 2.87109-3.49609 2.87109-7.05078C2.87109-10.6055 5.69336-13.4473 9.23828-13.4473C12.793-13.4473 15.6348-10.6055 15.6445-7.05078C15.6543-3.49609 12.8027-0.654297 9.24805-0.654297ZM9.22852-3.62305C9.69727-3.62305 9.9707-3.93555 9.9707-4.45312L9.9707-6.31836L12.002-6.31836C12.5-6.31836 12.832-6.57227 12.832-7.04102C12.832-7.51953 12.5195-7.7832 12.002-7.7832L9.9707-7.7832L9.9707-9.81445C9.9707-10.332 9.69727-10.6543 9.22852-10.6543C8.75977-10.6543 8.50586-10.3125 8.50586-9.81445L8.50586-7.7832L6.49414-7.7832C5.97656-7.7832 5.64453-7.51953 5.64453-7.04102C5.64453-6.57227 5.99609-6.31836 6.49414-6.31836L8.50586-6.31836L8.50586-4.45312C8.50586-3.95508 8.75977-3.62305 9.22852-3.62305Z"/>
  </g>
  <g id="" transform="matrix(1 0 0 1 281.506 1933)">
   <path d="M11.709 2.91016C17.1582 2.91016 21.6699-1.61133 21.6699-7.05078C21.6699-12.5 17.1484-17.0117 11.6992-17.0117C6.25977-17.0117 1.74805-12.5 1.74805-7.05078C1.74805-1.61133 6.26953 2.91016 11.709 2.91016ZM11.709 1.25C7.09961 1.25 3.41797-2.44141 3.41797-7.05078C3.41797-11.6602 7.08984-15.3516 11.6992-15.3516C16.3086-15.3516 20-11.6602 20.0098-7.05078C20.0195-2.44141 16.3184 1.25 11.709 1.25ZM11.6797-2.66602C12.207-2.66602 12.5098-3.01758 12.5098-3.59375L12.5098-6.23047L15.3223-6.23047C15.8691-6.23047 16.25-6.51367 16.25-7.03125C16.25-7.55859 15.8887-7.86133 15.3223-7.86133L12.5098-7.86133L12.5098-10.6836C12.5098-11.25 12.207-11.6113 11.6797-11.6113C11.1621-11.6113 10.8789-11.2305 10.8789-10.6836L10.8789-7.86133L8.07617-7.86133C7.50977-7.86133 7.13867-7.55859 7.13867-7.03125C7.13867-6.51367 7.5293-6.23047 8.07617-6.23047L10.8789-6.23047L10.8789-3.59375C10.8789-3.03711 11.1621-2.66602 11.6797-2.66602Z"/>
  </g>
  <g id="" transform="matrix(1 0 0 1 304.924 1933)">
   <path d="M14.9707 5.66406C21.9336 5.66406 27.6953-0.0976562 27.6953-7.05078C27.6953-14.0137 21.9238-19.7754 14.9609-19.7754C8.00781-19.7754 2.25586-14.0137 2.25586-7.05078C2.25586-0.0976562 8.01758 5.66406 14.9707 5.66406ZM14.9707 3.84766C8.93555 3.84766 4.08203-1.01562 4.08203-7.05078C4.08203-13.0957 8.92578-17.9492 14.9609-17.9492C21.0059-17.9492 25.8594-13.0957 25.8691-7.05078C25.8789-1.01562 21.0156 3.84766 14.9707 3.84766ZM14.9414-1.38672C15.5176-1.38672 15.8594-1.77734 15.8594-2.38281L15.8594-6.13281L19.7754-6.13281C20.3711-6.13281 20.7812-6.46484 20.7812-7.02148C20.7812-7.59766 20.3906-7.93945 19.7754-7.93945L15.8594-7.93945L15.8594-11.8652C15.8594-12.4805 15.5176-12.8711 14.9414-12.8711C14.375-12.8711 14.0527-12.4609 14.0527-11.8652L14.0527-7.93945L10.1465-7.93945C9.53125-7.93945 9.13086-7.59766 9.13086-7.02148C9.13086-6.46484 9.55078-6.13281 10.1465-6.13281L14.0527-6.13281L14.0527-2.38281C14.0527-1.79688 14.375-1.38672 14.9414-1.38672Z"/>
  </g>
  <text style="stroke:none;fill:black;font-family:-apple-system,&quot;SF Pro Display&quot;,&quot;SF Pro Text&quot;,Helvetica,sans-serif;font-weight:bold;" transform="matrix(1 0 0 1 263 1953)">Design Variations</text>
  <text style="stroke:none;fill:black;font-family:-apple-system,&quot;SF Pro Display&quot;,&quot;SF Pro Text&quot;,Helvetica,sans-serif;" transform="matrix(1 0 0 1 263 1971)">Symbols are supported in up to nine weights and three scales.</text>
  <text style="stroke:none;fill:black;font-family:-apple-system,&quot;SF Pro Display&quot;,&quot;SF Pro Text&quot;,Helvetica,sans-serif;" transform="matrix(1 0 0 1 263 1989)">For optimal layout with text and other symbols, vertically align</text>
  <text style="stroke:none;fill:black;font-family:-apple-system,&quot;SF Pro Display&quot;,&quot;SF Pro Text&quot;,Helvetica,sans-serif;" transform="matrix(1 0 0 1 263 2007)">symbols with the adjacent text.</text>
  <line id="" style="fill:none;stroke:#00AEEF;stroke-width:0.5;opacity:1.0;" x1="776" x2="776" y1="1919" y2="1933"/>
  <g id="" transform="matrix(1 0 0 1 776 1933)">
   <path d="M3.31055 0.126953C3.82812 0.126953 4.08203-0.0683594 4.26758-0.605469L5.52734-4.0625L11.2891-4.0625L12.5488-0.605469C12.7344-0.0683594 12.9883 0.126953 13.4961 0.126953C14.0137 0.126953 14.3457-0.185547 14.3457-0.673828C14.3457-0.839844 14.3164-0.986328 14.2383-1.20117L9.6582-13.3887C9.43359-13.9941 9.0332-14.2871 8.4082-14.2871C7.80273-14.2871 7.39258-13.9941 7.17773-13.3984L2.59766-1.19141C2.51953-0.976562 2.49023-0.830078 2.49023-0.664062C2.49023-0.175781 2.80273 0.126953 3.31055 0.126953ZM6.00586-5.53711L8.37891-12.1094L8.42773-12.1094L10.8008-5.53711Z"/>
  </g>
  <line id="" style="fill:none;stroke:#00AEEF;stroke-width:0.5;opacity:1.0;" x1="792.836" x2="792.836" y1="1919" y2="1933"/>
  <text style="stroke:none;fill:black;font-family:-apple-system,&quot;SF Pro Display&quot;,&quot;SF Pro Text&quot;,Helvetica,sans-serif;font-weight:bold;" transform="matrix(1 0 0 1 776 1953)">Margins</text>
  <text style="stroke:none;fill:black;font-family:-apple-system,&quot;SF Pro Display&quot;,&quot;SF Pro Text&quot;,Helvetica,sans-serif;" transform="matrix(1 0 0 1 776 1971)">Leading and trailing margins on the left and right side of each symbol</text>
  <text style="stroke:none;fill:black;font-family:-apple-system,&quot;SF Pro Display&quot;,&quot;SF Pro Text&quot;,Helvetica,sans-serif;" transform="matrix(1 0 0 1 776 1989)">can be adjusted by modifying the x-location of the margin guidelines.</text>
  <text style="stroke:none;fill:black;font-family:-apple-system,&quot;SF Pro Display&quot;,&quot;SF Pro Text&quot;,Helvetica,sans-serif;" transform="matrix(1 0 0 1 776 2007)">Modifications are automatically applied proportionally to all</text>
  <text style="stroke:none;fill:black;font-family:-apple-system,&quot;SF Pro Display&quot;,&quot;SF Pro Text&quot;,Helvetica,sans-serif;" transform="matrix(1 0 0 1 776 2025)">scales and weights.</text>
  <g id="" transform="matrix(1 0 0 1 1289 1933)">
   <path d="M2.8418 1.86523L4.54102 3.57422C5.40039 4.44336 6.38672 4.38477 7.31445 3.35938L17.4902-7.85156C17.7539-7.76367 18.0273-7.7832 18.3398-7.8418L19.4043-8.03711L20.0684-7.36328L20.0293-6.80664C19.9902-6.30859 20.1172-5.92773 20.6055-5.44922L21.3672-4.70703C21.8457-4.22852 22.4609-4.19922 22.9297-4.66797L25.8398-7.58789C26.3086-8.05664 26.2891-8.65234 25.8105-9.13086L25.0391-9.89258C24.5605-10.3711 24.1895-10.5273 23.7109-10.4883L23.1348-10.4395L22.4902-11.0742L22.7344-12.1973C22.8613-12.7637 22.7051-13.2031 22.1191-13.7891L19.9219-15.9766C16.582-19.2969 12.1484-19.2188 9.25781-16.3281C8.83789-15.918 8.80859-15.3418 9.04297-14.9512C9.27734-14.5898 9.73633-14.3555 10.3809-14.5215C11.8457-14.8633 13.3691-14.9219 14.7949-13.9844L14.209-12.5293C14.0137-12.0508 13.9844-11.6504 14.1113-11.2891L3.04688-0.898438C2.06055 0.0195312 1.98242 0.996094 2.8418 1.86523ZM10.752-15.957C13.1836-17.7344 16.4746-17.4316 18.7012-15.2051L21.1328-12.793C21.3672-12.5586 21.4062-12.373 21.3379-12.0312L21.0156-10.5469L22.5195-9.0625L23.5059-9.12109C23.7598-9.13086 23.8379-9.11133 24.0332-8.91602L24.6094-8.33984L22.168-5.89844L21.5918-6.47461C21.3965-6.66992 21.3672-6.74805 21.377-7.01172L21.4453-7.98828L19.9512-9.47266L18.4277-9.21875C18.1055-9.15039 17.959-9.17969 17.7148-9.41406L15.7129-11.416C15.459-11.6504 15.4297-11.8164 15.5859-12.1875L16.4648-14.2773C14.9023-15.7324 12.8711-16.3574 10.8398-15.7617C10.6836-15.7227 10.625-15.8496 10.752-15.957ZM5.27344 2.30469L4.10156 1.14258C3.63281 0.683594 3.74023 0.341797 4.14062-0.0195312L14.9512-10.1953L16.416-8.71094L6.42578 2.27539C6.07422 2.67578 5.74219 2.77344 5.27344 2.30469Z"/>
  </g>
  <text style="stroke:none;fill:black;font-family:-apple-system,&quot;SF Pro Display&quot;,&quot;SF Pro Text&quot;,Helvetica,sans-serif;font-weight:bold;" transform="matrix(1 0 0 1 1289 1953)">Exporting</text>
  <text style="stroke:none;fill:black;font-family:-apple-system,&quot;SF Pro Display&quot;,&quot;SF Pro Text&quot;,Helvetica,sans-serif;" transform="matrix(1 0 0 1 1289 1971)">Symbols should be outlined when exporting to ensure the</text>
  <text style="stroke:none;fill:black;font-family:-apple-system,&quot;SF Pro Display&quot;,&quot;SF Pro Text&quot;,Helvetica,sans-serif;" transform="matrix(1 0 0 1 1289 1989)">design is preserved when submitting to Xcode.</text>
  <text id="template-version" style="stroke:none;fill:black;font-family:-apple-system,&quot;SF Pro Display&quot;,&quot;SF Pro Text&quot;,Helvetica,sans-serif;text-anchor:end;" transform="matrix(1 0 0 1 3036 1933)">Template v.2.0</text>
  <text style="stroke:none;fill:black;font-family:-apple-system,&quot;SF Pro Display&quot;,&quot;SF Pro Text&quot;,Helvetica,sans-serif;text-anchor:end;" transform="matrix(1 0 0 1 3036 1951)">Requires Xcode 12 or greater</text>
  <text style="stroke:none;fill:black;font-family:-apple-system,&quot;SF Pro Display&quot;,&quot;SF Pro Text&quot;,Helvetica,sans-serif;text-anchor:end;" transform="matrix(1 0 0 1 3036 1969)">Generated from list.bullet.indent</text>
  <text style="stroke:none;fill:black;font-family:-apple-system,&quot;SF Pro Display&quot;,&quot;SF Pro Text&quot;,Helvetica,sans-serif;text-anchor:end;" transform="matrix(1 0 0 1 3036 1987)">Typeset at 100 points</text>
  <text style="stroke:none;fill:black;font-family:-apple-system,&quot;SF Pro Display&quot;,&quot;SF Pro Text&quot;,Helvetica,sans-serif;" transform="matrix(1 0 0 1 263 726)">Small</text>
  <text style="stroke:none;fill:black;font-family:-apple-system,&quot;SF Pro Display&quot;,&quot;SF Pro Text&quot;,Helvetica,sans-serif;" transform="matrix(1 0 0 1 263 1156)">Medium</text>
  <text style="stroke:none;fill:black;font-family:-apple-system,&quot;SF Pro Display&quot;,&quot;SF Pro Text&quot;,Helvetica,sans-serif;" transform="matrix(1 0 0 1 263 1586)">Large</text>
 </g>
 <g id="Guides">
  <g id="H-reference" style="fill:#27AAE1;stroke:none;" transform="matrix(1 0 0 1 339 696)">
   <path d="M0.976562 0L3.66211 0L12.9883-24.4629L45.752-24.4629L55.127 0L57.7637 0L30.6152-70.459L28.125-70.459ZM29.3457-67.1387L29.4434-67.1387L44.873-26.709L13.8672-26.709Z"/>
  </g>
  <line id="Baseline-S" style="fill:none;stroke:#27AAE1;opacity:1;stroke-width:0.5;" x1="263" x2="3036" y1="696" y2="696"/>
  <line id="Capline-S" style="fill:none;stroke:#27AAE1;opacity:1;stroke-width:0.5;" x1="263" x2="3036" y1="625.541" y2="625.541"/>
  <g id="H-reference" style="fill:#27AAE1;stroke:none;" transform="matrix(1 0 0 1 339 1126)">
   <path d="M0.976562 0L3.66211 0L12.9883-24.4629L45.752-24.4629L55.127 0L57.7637 0L30.6152-70.459L28.125-70.459ZM29.3457-67.1387L29.4434-67.1387L44.873-26.709L13.8672-26.709Z"/>
  </g>
  <line id="Baseline-M" style="fill:none;stroke:#27AAE1;opacity:1;stroke-width:0.5;" x1="263" x2="3036" y1="1126" y2="1126"/>
  <line id="Capline-M" style="fill:none;stroke:#27AAE1;opacity:1;stroke-width:0.5;" x1="263" x2="3036" y1="1055.54" y2="1055.54"/>
  <g id="H-reference" style="fill:#27AAE1;stroke:none;" transform="matrix(1 0 0 1 339 1556)">
   <path d="M0.976562 0L3.66211 0L12.9883-24.4629L45.752-24.4629L55.127 0L57.7637 0L30.6152-70.459L28.125-70.459ZM29.3457-67.1387L29.4434-67.1387L44.873-26.709L13.8672-26.709Z"/>
  </g>
  <line id="Baseline-L" style="fill:none;stroke:#27AAE1;opacity:1;stroke-width:0.5;" x1="263" x2="3036" y1="1556" y2="1556"/>
  <line id="Capline-L" style="fill:none;stroke:#27AAE1;opacity:1;stroke-width:0.5;" x1="263" x2="3036" y1="1485.54" y2="1485.54"/>
  <line id="left-margin" style="fill:none;stroke:#00AEEF;stroke-width:0.5;opacity:1.0;" x1="1376.02" x2="1376.02" y1="1030.79" y2="1150.12"/>
  <line id="right-margin" style="fill:none;stroke:#00AEEF;stroke-width:0.5;opacity:1.0;" x1="1523.67" x2="1523.67" y1="1030.79" y2="1150.12"/>
 </g>
 <g id="Symbols">
  <g id="Black-L" transform="matrix(1 0 0 1 2829.91 1556)">
   <path d="M28.125-63.8672C34.7656-63.8672 40.2344-69.3359 40.2344-75.9766C40.2344-82.6172 34.7656-88.0371 28.125-88.0371C21.5332-88.0371 16.0645-82.6172 16.0645-75.9766C16.0645-69.3359 21.5332-63.8672 28.125-63.8672ZM63.2812-66.6992L147.168-66.6992C152.295-66.6992 156.396-70.8008 156.396-75.9766C156.396-81.1035 152.344-85.2051 147.168-85.2051L63.2812-85.2051C58.1543-85.2051 54.0527-81.1523 54.0527-75.9766C54.0527-70.8496 58.1055-66.6992 63.2812-66.6992ZM45.4102-23.0957C52.002-23.0957 57.4707-28.5645 57.4707-35.2051C57.4707-41.7969 52.002-47.2656 45.4102-47.2656C38.7695-47.2656 33.3008-41.7969 33.3008-35.2051C33.3008-28.5645 38.7695-23.0957 45.4102-23.0957ZM80.5176-25.9277L164.404-25.9277C169.58-25.9277 173.682-29.9805 173.682-35.2051C173.682-40.332 169.629-44.4336 164.404-44.4336L80.5176-44.4336C75.3906-44.4336 71.2891-40.3809 71.2891-35.2051C71.2891-30.0781 75.3418-25.9277 80.5176-25.9277ZM62.6465 17.6758C69.2871 17.6758 74.707 12.207 74.707 5.56641C74.707-1.02539 69.2871-6.49414 62.6465-6.49414C56.0059-6.49414 50.5859-1.02539 50.5859 5.56641C50.5859 12.207 56.0059 17.6758 62.6465 17.6758ZM97.8027 14.8438L181.689 14.8438C186.816 14.8438 190.918 10.791 190.918 5.56641C190.918 0.439453 186.865-3.66211 181.689-3.66211L97.8027-3.66211C92.6758-3.66211 88.5254 0.390625 88.5254 5.56641C88.5254 10.6934 92.5781 14.8438 97.8027 14.8438Z"/>
  </g>
  <g id="Heavy-L" transform="matrix(1 0 0 1 2535.37 1556)">
   <path d="M27.0996-64.209C33.1543-64.209 38.1348-69.1895 38.1348-75.2441C38.1348-81.3477 33.1543-86.3281 27.0996-86.3281C21.0449-86.3281 16.0645-81.3477 16.0645-75.2441C16.0645-69.1895 21.0449-64.209 27.0996-64.209ZM60.3516-67.1875L144.824-67.1875C149.365-67.1875 152.93-70.7031 152.93-75.2441C152.93-79.7852 149.365-83.3496 144.824-83.3496L60.3516-83.3496C55.8594-83.3496 52.2949-79.834 52.2949-75.2441C52.2949-70.752 55.8105-67.1875 60.3516-67.1875ZM43.9453-24.1699C50-24.1699 54.9805-29.1016 54.9805-35.2051C54.9805-41.2598 50-46.2402 43.9453-46.2402C37.8906-46.2402 32.9102-41.2598 32.9102-35.2051C32.9102-29.1016 37.8906-24.1699 43.9453-24.1699ZM77.1973-27.0996L161.67-27.0996C166.162-27.0996 169.775-30.6641 169.775-35.2051C169.775-39.6973 166.211-43.2617 161.67-43.2617L77.1973-43.2617C72.7051-43.2617 69.0918-39.7461 69.0918-35.2051C69.0918-30.7129 72.6562-27.0996 77.1973-27.0996ZM60.7422 15.918C66.8457 15.918 71.7773 10.9375 71.7773 4.88281C71.7773-1.17188 66.8457-6.15234 60.7422-6.15234C54.6875-6.15234 49.707-1.17188 49.707 4.88281C49.707 10.9375 54.6875 15.918 60.7422 15.918ZM93.9941 12.9883L178.516 12.9883C183.008 12.9883 186.572 9.42383 186.572 4.88281C186.572 0.390625 183.057-3.17383 178.516-3.17383L93.9941-3.17383C89.502-3.17383 85.9375 0.341797 85.9375 4.88281C85.9375 9.375 89.4531 12.9883 93.9941 12.9883Z"/>
  </g>
  <g id="Bold-L" transform="matrix(1 0 0 1 2241.08 1556)">
   <path d="M25.9277-64.5996C31.3477-64.5996 35.791-69.043 35.791-74.5117C35.791-79.9316 31.3477-84.375 25.9277-84.375C20.5078-84.375 16.0645-79.9316 16.0645-74.5117C16.0645-69.043 20.5078-64.5996 25.9277-64.5996ZM57.0801-67.7246L142.236-67.7246C146.045-67.7246 149.023-70.6543 149.023-74.5117C149.023-78.2715 146.045-81.25 142.236-81.25L57.0801-81.25C53.2715-81.25 50.293-78.3203 50.293-74.5117C50.293-70.7031 53.2715-67.7246 57.0801-67.7246ZM42.2852-25.3418C47.7051-25.3418 52.1484-29.7363 52.1484-35.2051C52.1484-40.625 47.7051-45.0684 42.2852-45.0684C36.8652-45.0684 32.4219-40.625 32.4219-35.2051C32.4219-29.7363 36.8652-25.3418 42.2852-25.3418ZM73.4375-28.418L158.594-28.418C162.402-28.418 165.381-31.3477 165.381-35.2051C165.381-38.9648 162.402-41.9922 158.594-41.9922L73.4375-41.9922C69.6289-41.9922 66.6504-39.0137 66.6504-35.2051C66.6504-31.3965 69.6289-28.418 73.4375-28.418ZM58.6426 13.9648C64.1113 13.9648 68.5059 9.52148 68.5059 4.10156C68.5059-1.31836 64.1113-5.76172 58.6426-5.76172C53.2227-5.76172 48.7793-1.31836 48.7793 4.10156C48.7793 9.52148 53.2227 13.9648 58.6426 13.9648ZM89.7949 10.8887L174.951 10.8887C178.76 10.8887 181.738 7.91016 181.738 4.10156C181.738 0.341797 178.76-2.68555 174.951-2.68555L89.7949-2.68555C85.9863-2.68555 83.0078 0.292969 83.0078 4.10156C83.0078 7.91016 85.9863 10.8887 89.7949 10.8887Z"/>
  </g>
  <g id="Semibold-L" transform="matrix(1 0 0 1 1946.03 1556)">
   <path d="M25.1465-64.8926C30.127-64.8926 34.1797-68.9453 34.1797-73.9258C34.1797-78.9551 30.127-83.0078 25.1465-83.0078C20.1172-83.0078 16.0645-78.9551 16.0645-73.9258C16.0645-68.9453 20.1172-64.8926 25.1465-64.8926ZM54.834-68.0664L140.43-68.0664C143.75-68.0664 146.338-70.6543 146.338-73.9258C146.338-77.2461 143.75-79.834 140.43-79.834L54.834-79.834C51.5137-79.834 48.9258-77.2461 48.9258-73.9258C48.9258-70.6543 51.5137-68.0664 54.834-68.0664ZM41.1621-26.123C46.1426-26.123 50.2441-30.1758 50.2441-35.2051C50.2441-40.1855 46.1426-44.2383 41.1621-44.2383C36.1816-44.2383 32.0801-40.1855 32.0801-35.2051C32.0801-30.1758 36.1816-26.123 41.1621-26.123ZM70.8496-29.2969L156.494-29.2969C159.766-29.2969 162.354-31.8848 162.354-35.2051C162.354-38.4766 159.814-41.0645 156.494-41.0645L70.8496-41.0645C67.5781-41.0645 64.9902-38.5254 64.9902-35.2051C64.9902-31.8848 67.5293-29.2969 70.8496-29.2969ZM57.1777 12.6465C62.207 12.6465 66.2598 8.59375 66.2598 3.56445C66.2598-1.41602 62.207-5.51758 57.1777-5.51758C52.1973-5.51758 48.1445-1.41602 48.1445 3.56445C48.1445 8.59375 52.1973 12.6465 57.1777 12.6465ZM86.9141 9.47266L172.51 9.47266C175.83 9.47266 178.418 6.88477 178.418 3.56445C178.418 0.292969 175.83-2.29492 172.51-2.29492L86.9141-2.29492C83.5938-2.29492 81.0059 0.244141 81.0059 3.56445C81.0059 6.88477 83.5938 9.47266 86.9141 9.47266Z"/>
  </g>
  <g id="Medium-L" transform="matrix(1 0 0 1 1650.58 1556)">
   <path d="M24.5117-65.0879C29.1992-65.0879 32.959-68.8477 32.959-73.5352C32.959-78.2227 29.1992-81.9824 24.5117-81.9824C19.873-81.9824 16.0645-78.2227 16.0645-73.5352C16.0645-68.8477 19.873-65.0879 24.5117-65.0879ZM53.125-68.3105L139.062-68.3105C141.992-68.3105 144.287-70.6055 144.287-73.5352C144.287-76.4648 142.041-78.7598 139.062-78.7598L53.125-78.7598C50.1953-78.7598 47.9004-76.4648 47.9004-73.5352C47.9004-70.6055 50.1953-68.3105 53.125-68.3105ZM40.332-26.709C44.9707-26.709 48.7793-30.5176 48.7793-35.2051C48.7793-39.8438 44.9707-43.6523 40.332-43.6523C35.6445-43.6523 31.8359-39.8438 31.8359-35.2051C31.8359-30.5176 35.6445-26.709 40.332-26.709ZM68.8965-29.9805L154.883-29.9805C157.812-29.9805 160.059-32.2266 160.059-35.2051C160.059-38.1348 157.812-40.3809 154.883-40.3809L68.8965-40.3809C65.9668-40.3809 63.6719-38.1348 63.6719-35.2051C63.6719-32.2754 65.9668-29.9805 68.8965-29.9805ZM56.1035 11.6211C60.7422 11.6211 64.5508 7.8125 64.5508 3.17383C64.5508-1.51367 60.7422-5.27344 56.1035-5.27344C51.416-5.27344 47.6562-1.51367 47.6562 3.17383C47.6562 7.8125 51.416 11.6211 56.1035 11.6211ZM84.668 8.39844L170.654 8.39844C173.584 8.39844 175.879 6.10352 175.879 3.17383C175.879 0.244141 173.584-2.05078 170.654-2.05078L84.668-2.05078C81.7383-2.05078 79.4922 0.244141 79.4922 3.17383C79.4922 6.10352 81.7383 8.39844 84.668 8.39844Z"/>
  </g>
  <g id="Regular-L" transform="matrix(1 0 0 1 1355.53 1556)">
   <path d="M23.7305-65.332C27.9785-65.332 31.3965-68.75 31.3965-72.998C31.3965-77.2461 27.9785-80.6641 23.7305-80.6641C19.4824-80.6641 16.0645-77.2461 16.0645-72.998C16.0645-68.75 19.4824-65.332 23.7305-65.332ZM50.8789-68.7012L137.305-68.7012C139.746-68.7012 141.65-70.5566 141.65-72.998C141.65-75.4395 139.746-77.3438 137.305-77.3438L50.8789-77.3438C48.4375-77.3438 46.582-75.4395 46.582-72.998C46.582-70.5566 48.4375-68.7012 50.8789-68.7012ZM39.209-27.5391C43.457-27.5391 46.875-30.957 46.875-35.2051C46.875-39.4531 43.457-42.8711 39.209-42.8711C34.9609-42.8711 31.543-39.4531 31.543-35.2051C31.543-30.957 34.9609-27.5391 39.209-27.5391ZM66.3574-30.8594L152.783-30.8594C155.225-30.8594 157.08-32.7637 157.08-35.2051C157.08-37.6465 155.225-39.502 152.783-39.502L66.3574-39.502C63.916-39.502 62.0117-37.6465 62.0117-35.2051C62.0117-32.7637 63.916-30.8594 66.3574-30.8594ZM54.6387 10.3027C58.8867 10.3027 62.3047 6.88477 62.3047 2.63672C62.3047-1.61133 58.8867-5.0293 54.6387-5.0293C50.3906-5.0293 46.9727-1.61133 46.9727 2.63672C46.9727 6.88477 50.3906 10.3027 54.6387 10.3027ZM81.8359 6.93359L168.213 6.93359C170.703 6.93359 172.559 5.07812 172.559 2.63672C172.559 0.195312 170.703-1.70898 168.213-1.70898L81.8359-1.70898C79.3457-1.70898 77.4902 0.195312 77.4902 2.63672C77.4902 5.07812 79.3457 6.93359 81.8359 6.93359Z"/>
  </g>
  <g id="Light-L" transform="matrix(1 0 0 1 1060.12 1556)">
   <path d="M23.3398-65.332C27.3926-65.332 30.6641-68.6035 30.6641-72.6562C30.6641-76.6602 27.3926-79.9316 23.3398-79.9316C19.3359-79.9316 16.0645-76.6602 16.0645-72.6562C16.0645-68.6035 19.3359-65.332 23.3398-65.332ZM49.6094-69.3359L136.475-69.3359C138.379-69.3359 139.795-70.752 139.795-72.6562C139.795-74.5117 138.379-75.9277 136.475-75.9277L49.6094-75.9277C47.7051-75.9277 46.2891-74.5117 46.2891-72.6562C46.2891-70.752 47.7051-69.3359 49.6094-69.3359ZM38.4277-27.8809C42.4805-27.8809 45.752-31.1523 45.752-35.2051C45.752-39.209 42.4805-42.4805 38.4277-42.4805C34.4238-42.4805 31.1523-39.209 31.1523-35.2051C31.1523-31.1523 34.4238-27.8809 38.4277-27.8809ZM64.6973-31.8848L151.562-31.8848C153.467-31.8848 154.883-33.3008 154.883-35.2051C154.883-37.0605 153.467-38.4766 151.562-38.4766L64.6973-38.4766C62.793-38.4766 61.377-37.0605 61.377-35.2051C61.377-33.3008 62.793-31.8848 64.6973-31.8848ZM53.5645 9.57031C57.5684 9.57031 60.8398 6.29883 60.8398 2.24609C60.8398-1.75781 57.5684-5.0293 53.5645-5.0293C49.5117-5.0293 46.2402-1.75781 46.2402 2.24609C46.2402 6.29883 49.5117 9.57031 53.5645 9.57031ZM79.7852 5.56641L166.65 5.56641C168.555 5.56641 169.971 4.15039 169.971 2.24609C169.971 0.390625 168.555-1.02539 166.65-1.02539L79.7852-1.02539C77.8809-1.02539 76.4648 0.390625 76.4648 2.24609C76.4648 4.15039 77.8809 5.56641 79.7852 5.56641Z"/>
  </g>
  <g id="Thin-L" transform="matrix(1 0 0 1 765.114 1556)">
   <path d="M22.8516-65.332C26.6602-65.332 29.6875-68.3594 29.6875-72.168C29.6875-75.9277 26.6602-78.9551 22.8516-78.9551C19.0918-78.9551 16.0645-75.9277 16.0645-72.168C16.0645-68.3594 19.0918-65.332 22.8516-65.332ZM47.9004-70.166L135.4-70.166C136.523-70.166 137.354-70.9961 137.354-72.168C137.354-73.291 136.523-74.1211 135.4-74.1211L47.9004-74.1211C46.7285-74.1211 45.8984-73.291 45.8984-72.168C45.8984-70.9961 46.7285-70.166 47.9004-70.166ZM37.4512-28.3691C41.2598-28.3691 44.2871-31.3965 44.2871-35.2051C44.2871-38.9648 41.2598-41.9922 37.4512-41.9922C33.6914-41.9922 30.6641-38.9648 30.6641-35.2051C30.6641-31.3965 33.6914-28.3691 37.4512-28.3691ZM62.5-33.2031L150-33.2031C151.123-33.2031 151.953-34.0332 151.953-35.2051C151.953-36.3281 151.123-37.1582 150-37.1582L62.5-37.1582C61.3281-37.1582 60.498-36.3281 60.498-35.2051C60.498-34.0332 61.3281-33.2031 62.5-33.2031ZM52.0996 8.59375C55.8594 8.59375 58.8867 5.56641 58.8867 1.75781C58.8867-2.00195 55.8594-5.0293 52.0996-5.0293C48.291-5.0293 45.2637-2.00195 45.2637 1.75781C45.2637 5.56641 48.291 8.59375 52.0996 8.59375ZM77.0996 3.75977L164.6 3.75977C165.723 3.75977 166.553 2.92969 166.553 1.75781C166.553 0.634766 165.723-0.195312 164.6-0.195312L77.0996-0.195312C75.9277-0.195312 75.1465 0.634766 75.1465 1.75781C75.1465 2.92969 75.9277 3.75977 77.0996 3.75977Z"/>
  </g>
  <g id="Ultralight-L" transform="matrix(1 0 0 1 469.281 1556)">
   <path d="M22.6074-65.332C26.2695-65.332 29.1504-68.2617 29.1504-71.9238C29.1504-75.5371 26.2695-78.4668 22.6074-78.4668C18.9941-78.4668 16.0645-75.5371 16.0645-71.9238C16.0645-68.2617 18.9941-65.332 22.6074-65.332ZM47.0215-70.6055L134.814-70.6055C135.596-70.6055 136.084-71.0938 136.084-71.9238C136.084-72.7051 135.596-73.1934 134.814-73.1934L47.0215-73.1934C46.2402-73.1934 45.752-72.7051 45.752-71.9238C45.752-71.0938 46.2402-70.6055 47.0215-70.6055ZM36.9629-28.6133C40.625-28.6133 43.5059-31.543 43.5059-35.2051C43.5059-38.8184 40.625-41.748 36.9629-41.748C33.3496-41.748 30.4199-38.8184 30.4199-35.2051C30.4199-31.543 33.3496-28.6133 36.9629-28.6133ZM61.377-33.9355L149.17-33.9355C149.951-33.9355 150.439-34.4238 150.439-35.2051C150.439-35.9863 149.951-36.4746 149.17-36.4746L61.377-36.4746C60.5957-36.4746 60.1074-35.9863 60.1074-35.2051C60.1074-34.4238 60.5957-33.9355 61.377-33.9355ZM51.3184 8.05664C54.9805 8.05664 57.8613 5.17578 57.8613 1.51367C57.8613-2.09961 54.9805-5.0293 51.3184-5.0293C47.7051-5.0293 44.7754-2.09961 44.7754 1.51367C44.7754 5.17578 47.7051 8.05664 51.3184 8.05664ZM75.7324 2.7832L163.525 2.7832C164.307 2.7832 164.795 2.29492 164.795 1.51367C164.795 0.732422 164.307 0.244141 163.525 0.244141L75.7324 0.244141C74.9512 0.244141 74.4629 0.732422 74.4629 1.51367C74.4629 2.29492 74.9512 2.7832 75.7324 2.7832Z"/>
  </g>
  <g id="Black-M" transform="matrix(1 0 0 1 2850.95 1126)">
   <path d="M22.998-56.9824C28.8086-56.9824 33.5938-61.7676 33.5938-67.5293C33.5938-73.3398 28.8086-78.125 22.998-78.125C17.2363-78.125 12.4512-73.3398 12.4512-67.5293C12.4512-61.7676 17.2363-56.9824 22.998-56.9824ZM52.2949-59.375L116.748-59.375C121.289-59.375 124.951-62.9395 124.951-67.5293C124.951-72.0703 121.338-75.7324 116.748-75.7324L52.2949-75.7324C47.7539-75.7324 44.0918-72.1191 44.0918-67.5293C44.0918-62.9883 47.7051-59.375 52.2949-59.375ZM36.7676-24.6094C42.5293-24.6094 47.3145-29.3945 47.3145-35.2051C47.3145-40.9668 42.5293-45.752 36.7676-45.752C30.957-45.752 26.1719-40.9668 26.1719-35.2051C26.1719-29.3945 30.957-24.6094 36.7676-24.6094ZM66.0156-27.002L130.518-27.002C135.01-27.002 138.672-30.6152 138.672-35.2051C138.672-39.7461 135.107-43.4082 130.518-43.4082L66.0156-43.4082C61.5234-43.4082 57.8613-39.7949 57.8613-35.2051C57.8613-30.6641 61.4258-27.002 66.0156-27.002ZM50.4883 7.71484C56.2988 7.71484 61.084 2.92969 61.084-2.83203C61.084-8.64258 56.2988-13.4277 50.4883-13.4277C44.7266-13.4277 39.9414-8.64258 39.9414-2.83203C39.9414 2.92969 44.7266 7.71484 50.4883 7.71484ZM79.7852 5.32227L144.238 5.32227C148.779 5.32227 152.441 1.75781 152.441-2.83203C152.441-7.37305 148.828-11.0352 144.238-11.0352L79.7852-11.0352C75.2441-11.0352 71.582-7.4707 71.582-2.83203C71.582 1.66016 75.1953 5.32227 79.7852 5.32227Z"/>
  </g>
  <g id="Heavy-M" transform="matrix(1 0 0 1 2556.29 1126)">
   <path d="M21.9727-57.373C27.1973-57.373 31.4941-61.6699 31.4941-66.8945C31.4941-72.1191 27.1973-76.416 21.9727-76.416C16.748-76.416 12.4512-72.1191 12.4512-66.8945C12.4512-61.6699 16.748-57.373 21.9727-57.373ZM49.4141-59.7168L114.404-59.7168C118.408-59.7168 121.631-62.8418 121.631-66.8945C121.631-70.8496 118.457-74.0723 114.404-74.0723L49.4141-74.0723C45.459-74.0723 42.2363-70.8984 42.2363-66.8945C42.2363-62.8906 45.4102-59.7168 49.4141-59.7168ZM35.3516-25.6836C40.5762-25.6836 44.873-29.9805 44.873-35.2051C44.873-40.4297 40.5762-44.7266 35.3516-44.7266C30.127-44.7266 25.8301-40.4297 25.8301-35.2051C25.8301-29.9805 30.127-25.6836 35.3516-25.6836ZM62.793-28.0273L127.783-28.0273C131.787-28.0273 134.961-31.1523 134.961-35.2051C134.961-39.1602 131.836-42.3828 127.783-42.3828L62.793-42.3828C58.8379-42.3828 55.6152-39.209 55.6152-35.2051C55.6152-31.2012 58.7891-28.0273 62.793-28.0273ZM48.7305 6.00586C53.9551 6.00586 58.252 1.70898 58.252-3.51562C58.252-8.74023 53.9551-13.0371 48.7305-13.0371C43.5059-13.0371 39.209-8.74023 39.209-3.51562C39.209 1.70898 43.5059 6.00586 48.7305 6.00586ZM76.1719 3.66211L141.162 3.66211C145.166 3.66211 148.34 0.537109 148.34-3.51562C148.34-7.51953 145.215-10.6934 141.162-10.6934L76.1719-10.6934C72.2168-10.6934 68.9941-7.56836 68.9941-3.51562C68.9941 0.488281 72.168 3.66211 76.1719 3.66211Z"/>
  </g>
  <g id="Bold-M" transform="matrix(1 0 0 1 2261.85 1126)">
   <path d="M20.8008-57.7637C25.3906-57.7637 29.1504-61.5234 29.1504-66.1133C29.1504-70.7031 25.3906-74.5117 20.8008-74.5117C16.2109-74.5117 12.4512-70.7031 12.4512-66.1133C12.4512-61.5234 16.2109-57.7637 20.8008-57.7637ZM46.2402-60.0586L111.816-60.0586C115.186-60.0586 117.871-62.7441 117.871-66.1133C117.871-69.4824 115.234-72.168 111.816-72.168L46.2402-72.168C42.8711-72.168 40.1855-69.5312 40.1855-66.1133C40.1855-62.7441 42.8223-60.0586 46.2402-60.0586ZM33.7891-26.8555C38.3789-26.8555 42.1387-30.6152 42.1387-35.2051C42.1387-39.7949 38.3789-43.5547 33.7891-43.5547C29.1992-43.5547 25.4395-39.7949 25.4395-35.2051C25.4395-30.6152 29.1992-26.8555 33.7891-26.8555ZM59.1797-29.1504L124.805-29.1504C128.174-29.1504 130.859-31.7871 130.859-35.2051C130.859-38.5742 128.174-41.2598 124.805-41.2598L59.1797-41.2598C55.8105-41.2598 53.125-38.623 53.125-35.2051C53.125-31.8359 55.8105-29.1504 59.1797-29.1504ZM46.7285 4.10156C51.3184 4.10156 55.127 0.341797 55.127-4.24805C55.127-8.83789 51.3184-12.6465 46.7285-12.6465C42.1387-12.6465 38.3789-8.83789 38.3789-4.24805C38.3789 0.341797 42.1387 4.10156 46.7285 4.10156ZM72.168 1.80664L137.744 1.80664C141.113 1.80664 143.799-0.878906 143.799-4.24805C143.799-7.61719 141.162-10.3027 137.744-10.3027L72.168-10.3027C68.7988-10.3027 66.1133-7.66602 66.1133-4.24805C66.1133-0.878906 68.75 1.80664 72.168 1.80664Z"/>
  </g>
  <g id="Semibold-M" transform="matrix(1 0 0 1 1966.7 1126)">
   <path d="M20.0195-58.0566C24.1699-58.0566 27.5391-61.4746 27.5391-65.625C27.5391-69.7754 24.1699-73.1934 20.0195-73.1934C15.8203-73.1934 12.4512-69.7754 12.4512-65.625C12.4512-61.4746 15.8203-58.0566 20.0195-58.0566ZM44.043-60.3516L110.01-60.3516C112.988-60.3516 115.332-62.6465 115.332-65.625C115.332-68.5547 112.988-70.8984 110.01-70.8984L44.043-70.8984C41.0645-70.8984 38.7207-68.6035 38.7207-65.625C38.7207-62.6465 41.0645-60.3516 44.043-60.3516ZM32.7148-27.6367C36.8652-27.6367 40.2344-31.0547 40.2344-35.2051C40.2344-39.3555 36.8652-42.7734 32.7148-42.7734C28.5156-42.7734 25.1465-39.3555 25.1465-35.2051C25.1465-31.0547 28.5156-27.6367 32.7148-27.6367ZM56.7383-29.9316L122.705-29.9316C125.684-29.9316 127.979-32.2266 127.979-35.2051C127.979-38.1348 125.684-40.4785 122.705-40.4785L56.7383-40.4785C53.7598-40.4785 51.416-38.1836 51.416-35.2051C51.416-32.2266 53.7598-29.9316 56.7383-29.9316ZM45.3613 2.7832C49.5605 2.7832 52.9297-0.634766 52.9297-4.78516C52.9297-8.93555 49.5605-12.3535 45.3613-12.3535C41.2109-12.3535 37.8418-8.93555 37.8418-4.78516C37.8418-0.634766 41.2109 2.7832 45.3613 2.7832ZM69.3848 0.488281L135.4 0.488281C138.33 0.488281 140.674-1.80664 140.674-4.78516C140.674-7.71484 138.379-10.0586 135.4-10.0586L69.3848-10.0586C66.4551-10.0586 64.1113-7.76367 64.1113-4.78516C64.1113-1.80664 66.4062 0.488281 69.3848 0.488281Z"/>
  </g>
  <g id="Medium-M" transform="matrix(1 0 0 1 1671.19 1126)">
   <path d="M19.3848-58.3008C23.2422-58.3008 26.3184-61.377 26.3184-65.2344C26.3184-69.043 23.2422-72.168 19.3848-72.168C15.5762-72.168 12.4512-69.043 12.4512-65.2344C12.4512-61.377 15.5762-58.3008 19.3848-58.3008ZM42.334-60.5469L108.643-60.5469C111.279-60.5469 113.379-62.5977 113.379-65.2344C113.379-67.8711 111.328-69.9219 108.643-69.9219L42.334-69.9219C39.7461-69.9219 37.6465-67.8711 37.6465-65.2344C37.6465-62.5977 39.6973-60.5469 42.334-60.5469ZM31.8848-28.2715C35.6934-28.2715 38.8184-31.3477 38.8184-35.2051C38.8184-39.0137 35.6934-42.1387 31.8848-42.1387C28.0273-42.1387 24.9023-39.0137 24.9023-35.2051C24.9023-31.3477 28.0273-28.2715 31.8848-28.2715ZM54.834-30.5176L121.143-30.5176C123.779-30.5176 125.83-32.5684 125.83-35.2051C125.83-37.8418 123.779-39.8926 121.143-39.8926L54.834-39.8926C52.1973-39.8926 50.1465-37.8418 50.1465-35.2051C50.1465-32.5684 52.1973-30.5176 54.834-30.5176ZM44.3359 1.75781C48.1934 1.75781 51.2695-1.31836 51.2695-5.17578C51.2695-8.98438 48.1934-12.1094 44.3359-12.1094C40.5273-12.1094 37.4023-8.98438 37.4023-5.17578C37.4023-1.31836 40.5273 1.75781 44.3359 1.75781ZM67.2852-0.488281L133.594-0.488281C136.23-0.488281 138.281-2.53906 138.281-5.17578C138.281-7.8125 136.23-9.86328 133.594-9.86328L67.2852-9.86328C64.6484-9.86328 62.5977-7.8125 62.5977-5.17578C62.5977-2.53906 64.6484-0.488281 67.2852-0.488281Z"/>
  </g>
  <g id="Regular-M" transform="matrix(1 0 0 1 1376.02 1126)">
   <path d="M18.6035-58.5938C22.0215-58.5938 24.7559-61.3281 24.7559-64.6973C24.7559-68.1152 22.0215-70.8496 18.6035-70.8496C15.1855-70.8496 12.4512-68.1152 12.4512-64.6973C12.4512-61.3281 15.1855-58.5938 18.6035-58.5938ZM40.1855-60.791L106.885-60.791C109.082-60.791 110.84-62.5 110.84-64.6973C110.84-66.9434 109.082-68.6523 106.885-68.6523L40.1855-68.6523C37.9395-68.6523 36.2305-66.9434 36.2305-64.6973C36.2305-62.5 37.9395-60.791 40.1855-60.791ZM30.8105-29.0527C34.1797-29.0527 36.9629-31.7871 36.9629-35.2051C36.9629-38.623 34.1797-41.3574 30.8105-41.3574C27.3926-41.3574 24.6582-38.623 24.6582-35.2051C24.6582-31.7871 27.3926-29.0527 30.8105-29.0527ZM52.3438-31.25L119.092-31.25C121.289-31.25 122.998-33.0078 122.998-35.2051C122.998-37.4023 121.289-39.1113 119.092-39.1113L52.3438-39.1113C50.1465-39.1113 48.4375-37.4023 48.4375-35.2051C48.4375-33.0078 50.1465-31.25 52.3438-31.25ZM42.9688 0.488281C46.3867 0.488281 49.1211-2.29492 49.1211-5.66406C49.1211-9.08203 46.3867-11.8164 42.9688-11.8164C39.5996-11.8164 36.8164-9.08203 36.8164-5.66406C36.8164-2.29492 39.5996 0.488281 42.9688 0.488281ZM64.5508-1.75781L131.299-1.75781C133.496-1.75781 135.205-3.4668 135.205-5.66406C135.205-7.91016 133.496-9.61914 131.299-9.61914L64.5508-9.61914C62.3535-9.61914 60.6445-7.91016 60.6445-5.66406C60.6445-3.4668 62.3535-1.75781 64.5508-1.75781Z"/>
  </g>
  <g id="Light-M" transform="matrix(1 0 0 1 1080.45 1126)">
   <path d="M18.2617-58.5938C21.4844-58.5938 24.0723-61.1816 24.0723-64.4043C24.0723-67.627 21.4844-70.2148 18.2617-70.2148C15.0391-70.2148 12.4512-67.627 12.4512-64.4043C12.4512-61.1816 15.0391-58.5938 18.2617-58.5938ZM39.0137-61.377L106.152-61.377C107.861-61.377 109.18-62.6953 109.18-64.4043C109.18-66.1133 107.861-67.3828 106.152-67.3828L39.0137-67.3828C37.3047-67.3828 35.9863-66.1133 35.9863-64.4043C35.9863-62.6953 37.3047-61.377 39.0137-61.377ZM30.127-29.3945C33.3496-29.3945 35.9375-31.9824 35.9375-35.2051C35.9375-38.4277 33.3496-41.0156 30.127-41.0156C26.9043-41.0156 24.3164-38.4277 24.3164-35.2051C24.3164-31.9824 26.9043-29.3945 30.127-29.3945ZM50.8789-32.1777L118.018-32.1777C119.727-32.1777 121.045-33.4961 121.045-35.2051C121.045-36.9141 119.727-38.2324 118.018-38.2324L50.8789-38.2324C49.1699-38.2324 47.8516-36.9141 47.8516-35.2051C47.8516-33.4961 49.1699-32.1777 50.8789-32.1777ZM41.9922-0.195312C45.2148-0.195312 47.8027-2.7832 47.8027-6.00586C47.8027-9.22852 45.2148-11.8164 41.9922-11.8164C38.7695-11.8164 36.1816-9.22852 36.1816-6.00586C36.1816-2.7832 38.7695-0.195312 41.9922-0.195312ZM62.7441-2.97852L129.883-2.97852C131.592-2.97852 132.91-4.29688 132.91-6.00586C132.91-7.71484 131.592-9.0332 129.883-9.0332L62.7441-9.0332C61.0352-9.0332 59.7168-7.71484 59.7168-6.00586C59.7168-4.29688 61.0352-2.97852 62.7441-2.97852Z"/>
  </g>
  <g id="Thin-M" transform="matrix(1 0 0 1 785.28 1126)">
   <path d="M17.8223-58.5938C20.8008-58.5938 23.1934-60.9863 23.1934-63.9648C23.1934-66.9434 20.8008-69.3359 17.8223-69.3359C14.8438-69.3359 12.4512-66.9434 12.4512-63.9648C12.4512-60.9863 14.8438-58.5938 17.8223-58.5938ZM37.5-62.1582L105.176-62.1582C106.201-62.1582 106.982-62.8906 106.982-63.9648C106.982-64.9902 106.201-65.7715 105.176-65.7715L37.5-65.7715C36.4258-65.7715 35.6445-64.9902 35.6445-63.9648C35.6445-62.8906 36.4258-62.1582 37.5-62.1582ZM29.248-29.834C32.2266-29.834 34.6191-32.2266 34.6191-35.2051C34.6191-38.1836 32.2266-40.5762 29.248-40.5762C26.2695-40.5762 23.877-38.1836 23.877-35.2051C23.877-32.2266 26.2695-29.834 29.248-29.834ZM48.9258-33.3984L116.602-33.3984C117.627-33.3984 118.408-34.1309 118.408-35.2051C118.408-36.2793 117.627-37.0117 116.602-37.0117L48.9258-37.0117C47.8516-37.0117 47.0703-36.2793 47.0703-35.2051C47.0703-34.1309 47.8516-33.3984 48.9258-33.3984ZM40.6738-1.07422C43.6523-1.07422 46.0449-3.4668 46.0449-6.44531C46.0449-9.42383 43.6523-11.8164 40.6738-11.8164C37.6953-11.8164 35.3027-9.42383 35.3027-6.44531C35.3027-3.4668 37.6953-1.07422 40.6738-1.07422ZM60.3516-4.63867L128.027-4.63867C129.053-4.63867 129.834-5.37109 129.834-6.44531C129.834-7.51953 129.053-8.25195 128.027-8.25195L60.3516-8.25195C59.2773-8.25195 58.4961-7.51953 58.4961-6.44531C58.4961-5.37109 59.2773-4.63867 60.3516-4.63867Z"/>
  </g>
  <g id="Ultralight-M" transform="matrix(1 0 0 1 489.374 1126)">
   <path d="M17.627-58.5938C20.459-58.5938 22.7539-60.8887 22.7539-63.7207C22.7539-66.6016 20.459-68.8965 17.627-68.8965C14.7461-68.8965 12.4512-66.6016 12.4512-63.7207C12.4512-60.8887 14.7461-58.5938 17.627-58.5938ZM36.6699-62.5488L104.639-62.5488C105.371-62.5488 105.859-62.9883 105.859-63.7207C105.859-64.4531 105.371-64.9414 104.639-64.9414L36.6699-64.9414C35.9863-64.9414 35.498-64.4531 35.498-63.7207C35.498-62.9883 35.9863-62.5488 36.6699-62.5488ZM28.8086-30.0293C31.6406-30.0293 33.9844-32.3242 33.9844-35.2051C33.9844-38.0371 31.6406-40.332 28.8086-40.332C25.9277-40.332 23.6328-38.0371 23.6328-35.2051C23.6328-32.3242 25.9277-30.0293 28.8086-30.0293ZM47.9004-33.9844L115.869-33.9844C116.553-33.9844 117.041-34.4727 117.041-35.2051C117.041-35.9375 116.553-36.377 115.869-36.377L47.9004-36.377C47.168-36.377 46.6797-35.9375 46.6797-35.2051C46.6797-34.4727 47.168-33.9844 47.9004-33.9844ZM39.9902-1.51367C42.8711-1.51367 45.166-3.80859 45.166-6.68945C45.166-9.52148 42.8711-11.8164 39.9902-11.8164C37.1582-11.8164 34.8633-9.52148 34.8633-6.68945C34.8633-3.80859 37.1582-1.51367 39.9902-1.51367ZM59.082-5.46875L127.051-5.46875C127.783-5.46875 128.223-5.95703 128.223-6.68945C128.223-7.37305 127.783-7.86133 127.051-7.86133L59.082-7.86133C58.3496-7.86133 57.9102-7.37305 57.9102-6.68945C57.9102-5.95703 58.3496-5.46875 59.082-5.46875Z"/>
  </g>
  <g id="Black-S" transform="matrix(1 0 0 1 2868.95 696)">
   <path d="M17.9688-52.2949C22.4609-52.2949 26.1719-56.0059 26.1719-60.498C26.1719-64.9902 22.4609-68.7012 17.9688-68.7012C13.4766-68.7012 9.76562-64.9902 9.76562-60.498C9.76562-56.0059 13.4766-52.2949 17.9688-52.2949ZM40.7715-54.1504L91.3086-54.1504C94.8242-54.1504 97.6562-56.9336 97.6562-60.498C97.6562-64.0137 94.873-66.8457 91.3086-66.8457L40.7715-66.8457C37.2559-66.8457 34.4238-64.0625 34.4238-60.498C34.4238-56.9824 37.207-54.1504 40.7715-54.1504ZM28.7109-27.002C33.2031-27.002 36.9141-30.7129 36.9141-35.2051C36.9141-39.6973 33.2031-43.4082 28.7109-43.4082C24.2188-43.4082 20.5078-39.6973 20.5078-35.2051C20.5078-30.7129 24.2188-27.002 28.7109-27.002ZM51.5137-28.8574L102.051-28.8574C105.566-28.8574 108.398-31.6406 108.398-35.2051C108.398-38.7207 105.615-41.5527 102.051-41.5527L51.5137-41.5527C47.998-41.5527 45.166-38.7695 45.166-35.2051C45.166-31.6895 47.9492-28.8574 51.5137-28.8574ZM39.4531-1.70898C43.9453-1.70898 47.6562-5.41992 47.6562-9.91211C47.6562-14.4043 43.9453-18.1152 39.4531-18.1152C34.9609-18.1152 31.25-14.4043 31.25-9.91211C31.25-5.41992 34.9609-1.70898 39.4531-1.70898ZM62.2559-3.56445L112.793-3.56445C116.309-3.56445 119.141-6.34766 119.141-9.91211C119.141-13.4277 116.357-16.2598 112.793-16.2598L62.2559-16.2598C58.7402-16.2598 55.9082-13.4766 55.9082-9.91211C55.9082-6.39648 58.6914-3.56445 62.2559-3.56445Z"/>
  </g>
  <g id="Heavy-S" transform="matrix(1 0 0 1 2573.65 696)">
   <path d="M17.1875-52.5879C21.2891-52.5879 24.6582-55.957 24.6582-60.0098C24.6582-64.1113 21.2891-67.4805 17.1875-67.4805C13.1348-67.4805 9.76562-64.1113 9.76562-60.0098C9.76562-55.957 13.1348-52.5879 17.1875-52.5879ZM38.7207-54.3457L89.5996-54.3457C92.7734-54.3457 95.3125-56.8359 95.3125-60.0098C95.3125-63.1836 92.8223-65.7227 89.5996-65.7227L38.7207-65.7227C35.5469-65.7227 33.0078-63.2324 33.0078-60.0098C33.0078-56.8848 35.5469-54.3457 38.7207-54.3457ZM27.6855-27.7832C31.7871-27.7832 35.1562-31.1035 35.1562-35.2051C35.1562-39.3066 31.7871-42.627 27.6855-42.627C23.6328-42.627 20.2637-39.3066 20.2637-35.2051C20.2637-31.1035 23.6328-27.7832 27.6855-27.7832ZM49.2188-29.541L100.098-29.541C103.271-29.541 105.811-32.0312 105.811-35.2051C105.811-38.3789 103.32-40.8691 100.098-40.8691L49.2188-40.8691C46.0449-40.8691 43.5547-38.3789 43.5547-35.2051C43.5547-32.0312 46.0449-29.541 49.2188-29.541ZM38.1836-2.92969C42.2852-2.92969 45.6543-6.29883 45.6543-10.4004C45.6543-14.4531 42.2852-17.8223 38.1836-17.8223C34.1309-17.8223 30.7617-14.4531 30.7617-10.4004C30.7617-6.29883 34.1309-2.92969 38.1836-2.92969ZM59.7168-4.6875L110.596-4.6875C113.77-4.6875 116.309-7.17773 116.309-10.4004C116.309-13.5254 113.818-16.0645 110.596-16.0645L59.7168-16.0645C56.543-16.0645 54.0527-13.5742 54.0527-10.4004C54.0527-7.22656 56.543-4.6875 59.7168-4.6875Z"/>
  </g>
  <g id="Bold-S" transform="matrix(1 0 0 1 2278.55 696)">
   <path d="M16.3574-52.9297C19.9707-52.9297 22.9492-55.8594 22.9492-59.4727C22.9492-63.1348 19.9707-66.0645 16.3574-66.0645C12.7441-66.0645 9.76562-63.1348 9.76562-59.4727C9.76562-55.8594 12.7441-52.9297 16.3574-52.9297ZM36.4258-54.541L87.6953-54.541C90.4785-54.541 92.627-56.7383 92.627-59.4727C92.627-62.2559 90.4785-64.4531 87.6953-64.4531L36.4258-64.4531C33.6426-64.4531 31.4941-62.2559 31.4941-59.4727C31.4941-56.7383 33.6426-54.541 36.4258-54.541ZM26.5625-28.6133C30.2246-28.6133 33.1543-31.5918 33.1543-35.2051C33.1543-38.8184 30.2246-41.7969 26.5625-41.7969C22.9492-41.7969 19.9707-38.8184 19.9707-35.2051C19.9707-31.5918 22.9492-28.6133 26.5625-28.6133ZM46.6309-30.2734L97.9492-30.2734C100.684-30.2734 102.881-32.4219 102.881-35.2051C102.881-37.9395 100.732-40.1367 97.9492-40.1367L46.6309-40.1367C43.8965-40.1367 41.6992-37.9883 41.6992-35.2051C41.6992-32.4707 43.8477-30.2734 46.6309-30.2734ZM36.8164-4.3457C40.4297-4.3457 43.4082-7.27539 43.4082-10.9375C43.4082-14.5508 40.4297-17.5293 36.8164-17.5293C33.2031-17.5293 30.2246-14.5508 30.2246-10.9375C30.2246-7.27539 33.2031-4.3457 36.8164-4.3457ZM56.8848-5.95703L108.154-5.95703C110.889-5.95703 113.086-8.1543 113.086-10.9375C113.086-13.6719 110.938-15.8691 108.154-15.8691L56.8848-15.8691C54.1016-15.8691 51.9531-13.6719 51.9531-10.9375C51.9531-8.1543 54.1016-5.95703 56.8848-5.95703Z"/>
  </g>
  <g id="Semibold-S" transform="matrix(1 0 0 1 1982.94 696)">
   <path d="M15.7715-53.125C19.0918-53.125 21.7773-55.8105 21.7773-59.1309C21.7773-62.4512 19.0918-65.1367 15.7715-65.1367C12.4512-65.1367 9.76562-62.4512 9.76562-59.1309C9.76562-55.8105 12.4512-53.125 15.7715-53.125ZM34.8145-54.6875L86.377-54.6875C88.8672-54.6875 90.8203-56.6406 90.8203-59.1309C90.8203-61.5723 88.8672-63.5742 86.377-63.5742L34.8145-63.5742C32.373-63.5742 30.4199-61.6211 30.4199-59.1309C30.4199-56.6895 32.3242-54.6875 34.8145-54.6875ZM25.8301-29.1992C29.1016-29.1992 31.8359-31.8848 31.8359-35.2051C31.8359-38.5254 29.1016-41.2109 25.8301-41.2109C22.5098-41.2109 19.8242-38.5254 19.8242-35.2051C19.8242-31.8848 22.5098-29.1992 25.8301-29.1992ZM44.873-30.7617L96.4355-30.7617C98.9258-30.7617 100.879-32.7148 100.879-35.2051C100.879-37.6465 98.9258-39.6484 96.4355-39.6484L44.873-39.6484C42.3828-39.6484 40.4297-37.6953 40.4297-35.2051C40.4297-32.7637 42.3828-30.7617 44.873-30.7617ZM35.8398-5.27344C39.1602-5.27344 41.8457-7.95898 41.8457-11.2793C41.8457-14.5996 39.1602-17.2852 35.8398-17.2852C32.5684-17.2852 29.834-14.5996 29.834-11.2793C29.834-7.95898 32.5684-5.27344 35.8398-5.27344ZM54.8828-6.83594L106.494-6.83594C108.936-6.83594 110.889-8.78906 110.889-11.2793C110.889-13.7207 108.984-15.7227 106.494-15.7227L54.8828-15.7227C52.4414-15.7227 50.4883-13.7695 50.4883-11.2793C50.4883-8.83789 52.4414-6.83594 54.8828-6.83594Z"/>
  </g>
  <g id="Medium-S" transform="matrix(1 0 0 1 1687.06 696)">
   <path d="M15.332-53.3203C18.4082-53.3203 20.8984-55.8105 20.8984-58.8379C20.8984-61.9141 18.4082-64.4043 15.332-64.4043C12.2559-64.4043 9.76562-61.9141 9.76562-58.8379C9.76562-55.8105 12.2559-53.3203 15.332-53.3203ZM33.5938-54.834L85.4004-54.834C87.6465-54.834 89.4531-56.5918 89.4531-58.8379C89.4531-61.084 87.6465-62.8906 85.4004-62.8906L33.5938-62.8906C31.3477-62.8906 29.5898-61.1328 29.5898-58.8379C29.5898-56.5918 31.3477-54.834 33.5938-54.834ZM25.2441-29.6387C28.2715-29.6387 30.7617-32.1289 30.7617-35.2051C30.7617-38.2812 28.2715-40.7715 25.2441-40.7715C22.168-40.7715 19.6777-38.2812 19.6777-35.2051C19.6777-32.1289 22.168-29.6387 25.2441-29.6387ZM43.5059-31.1523L95.3125-31.1523C97.5586-31.1523 99.3164-32.959 99.3164-35.2051C99.3164-37.4512 97.5586-39.2578 95.3125-39.2578L43.5059-39.2578C41.2598-39.2578 39.502-37.4512 39.502-35.2051C39.502-32.959 41.2598-31.1523 43.5059-31.1523ZM35.1074-6.00586C38.1836-6.00586 40.6738-8.49609 40.6738-11.5723C40.6738-14.5996 38.1836-17.1387 35.1074-17.1387C32.0312-17.1387 29.541-14.5996 29.541-11.5723C29.541-8.49609 32.0312-6.00586 35.1074-6.00586ZM53.418-7.51953L105.225-7.51953C107.471-7.51953 109.229-9.27734 109.229-11.5723C109.229-13.8184 107.471-15.5762 105.225-15.5762L53.418-15.5762C51.1719-15.5762 49.3652-13.8184 49.3652-11.5723C49.3652-9.32617 51.1719-7.51953 53.418-7.51953Z"/>
  </g>
  <g id="Regular-S" transform="matrix(1 0 0 1 1391.42 696)">
   <path d="M14.7461-53.5156C17.4805-53.5156 19.7266-55.7617 19.7266-58.4961C19.7266-61.2305 17.4805-63.4766 14.7461-63.4766C12.0117-63.4766 9.76562-61.2305 9.76562-58.4961C9.76562-55.7617 12.0117-53.5156 14.7461-53.5156ZM32.0312-54.9805L84.1309-54.9805C86.084-54.9805 87.6465-56.543 87.6465-58.4961C87.6465-60.4492 86.084-62.0117 84.1309-62.0117L32.0312-62.0117C30.0781-62.0117 28.5156-60.4492 28.5156-58.4961C28.5156-56.543 30.0781-54.9805 32.0312-54.9805ZM24.4629-30.2246C27.1973-30.2246 29.4434-32.4707 29.4434-35.2051C29.4434-37.9395 27.1973-40.1855 24.4629-40.1855C21.6797-40.1855 19.4824-37.9395 19.4824-35.2051C19.4824-32.4707 21.6797-30.2246 24.4629-30.2246ZM41.748-31.6895L93.8477-31.6895C95.8008-31.6895 97.3633-33.252 97.3633-35.2051C97.3633-37.1582 95.8008-38.7207 93.8477-38.7207L41.748-38.7207C39.7949-38.7207 38.2324-37.1582 38.2324-35.2051C38.2324-33.252 39.7949-31.6895 41.748-31.6895ZM34.1797-6.93359C36.9141-6.93359 39.1602-9.17969 39.1602-11.9141C39.1602-14.6484 36.9141-16.8945 34.1797-16.8945C31.3965-16.8945 29.1992-14.6484 29.1992-11.9141C29.1992-9.17969 31.3965-6.93359 34.1797-6.93359ZM51.4648-8.39844L103.564-8.39844C105.518-8.39844 107.08-9.96094 107.08-11.9141C107.08-13.8672 105.518-15.4297 103.564-15.4297L51.4648-15.4297C49.5117-15.4297 47.9492-13.8672 47.9492-11.9141C47.9492-9.96094 49.5117-8.39844 51.4648-8.39844Z"/>
  </g>
  <g id="Light-S" transform="matrix(1 0 0 1 1095.74 696)">
   <path d="M14.4531-53.5156C17.041-53.5156 19.1406-55.6152 19.1406-58.2031C19.1406-60.791 17.041-62.8906 14.4531-62.8906C11.8652-62.8906 9.76562-60.791 9.76562-58.2031C9.76562-55.6152 11.8652-53.5156 14.4531-53.5156ZM31.0059-55.4688L83.4473-55.4688C85.0098-55.4688 86.1816-56.6895 86.1816-58.2031C86.1816-59.7168 85.0098-60.9375 83.4473-60.9375L31.0059-60.9375C29.4922-60.9375 28.3203-59.7168 28.3203-58.2031C28.3203-56.6895 29.4922-55.4688 31.0059-55.4688ZM23.877-30.5176C26.4648-30.5176 28.5645-32.6172 28.5645-35.2051C28.5645-37.793 26.4648-39.8926 23.877-39.8926C21.2891-39.8926 19.1895-37.793 19.1895-35.2051C19.1895-32.6172 21.2891-30.5176 23.877-30.5176ZM40.4297-32.4707L92.8711-32.4707C94.3848-32.4707 95.6055-33.6914 95.6055-35.2051C95.6055-36.7188 94.3848-37.9395 92.8711-37.9395L40.4297-37.9395C38.916-37.9395 37.7441-36.7188 37.7441-35.2051C37.7441-33.6914 38.916-32.4707 40.4297-32.4707ZM33.3008-7.51953C35.8887-7.51953 37.9883-9.61914 37.9883-12.207C37.9883-14.7949 35.8887-16.8945 33.3008-16.8945C30.7129-16.8945 28.6133-14.7949 28.6133-12.207C28.6133-9.61914 30.7129-7.51953 33.3008-7.51953ZM49.8535-9.47266L102.295-9.47266C103.809-9.47266 105.029-10.6934 105.029-12.207C105.029-13.7207 103.809-14.9414 102.295-14.9414L49.8535-14.9414C48.3398-14.9414 47.168-13.7207 47.168-12.207C47.168-10.6934 48.3398-9.47266 49.8535-9.47266Z"/>
  </g>
  <g id="Thin-S" transform="matrix(1 0 0 1 800.392 696)">
   <path d="M14.0625-53.5156C16.4551-53.5156 18.3594-55.4199 18.3594-57.8125C18.3594-60.2051 16.4551-62.1094 14.0625-62.1094C11.6699-62.1094 9.76562-60.2051 9.76562-57.8125C9.76562-55.4199 11.6699-53.5156 14.0625-53.5156ZM29.6875-56.1523L82.5684-56.1523C83.5449-56.1523 84.2285-56.8359 84.2285-57.8125C84.2285-58.7891 83.5449-59.4727 82.5684-59.4727L29.6875-59.4727C28.7109-59.4727 28.0273-58.7891 28.0273-57.8125C28.0273-56.8359 28.7109-56.1523 29.6875-56.1523ZM23.0957-30.9082C25.4883-30.9082 27.3926-32.8125 27.3926-35.2051C27.3926-37.5977 25.4883-39.502 23.0957-39.502C20.7031-39.502 18.7988-37.5977 18.7988-35.2051C18.7988-32.8125 20.7031-30.9082 23.0957-30.9082ZM38.7207-33.5449L91.6016-33.5449C92.5781-33.5449 93.2617-34.2285 93.2617-35.2051C93.2617-36.1816 92.5781-36.8652 91.6016-36.8652L38.7207-36.8652C37.7441-36.8652 37.0605-36.1816 37.0605-35.2051C37.0605-34.2285 37.7441-33.5449 38.7207-33.5449ZM32.1289-8.30078C34.5215-8.30078 36.4258-10.2051 36.4258-12.5977C36.4258-14.9902 34.5215-16.8945 32.1289-16.8945C29.7363-16.8945 27.832-14.9902 27.832-12.5977C27.832-10.2051 29.7363-8.30078 32.1289-8.30078ZM47.7539-10.9375L100.635-10.9375C101.611-10.9375 102.295-11.6211 102.295-12.5977C102.295-13.5742 101.611-14.2578 100.635-14.2578L47.7539-14.2578C46.7773-14.2578 46.0938-13.5742 46.0938-12.5977C46.0938-11.6211 46.7773-10.9375 47.7539-10.9375Z"/>
  </g>
  <g id="Ultralight-S" transform="matrix(1 0 0 1 504.364 696)">
   <path d="M13.8672-53.5156C16.1133-53.5156 17.9688-55.3223 17.9688-57.6172C17.9688-59.8633 16.1133-61.7188 13.8672-61.7188C11.5723-61.7188 9.76562-59.8633 9.76562-57.6172C9.76562-55.3223 11.5723-53.5156 13.8672-53.5156ZM28.9551-56.4941L82.1289-56.4941C82.8125-56.4941 83.252-56.9824 83.252-57.6172C83.252-58.252 82.8125-58.7402 82.1289-58.7402L28.9551-58.7402C28.3203-58.7402 27.8809-58.252 27.8809-57.6172C27.8809-56.9824 28.3203-56.4941 28.9551-56.4941ZM22.7051-31.1035C24.9512-31.1035 26.8066-32.9102 26.8066-35.2051C26.8066-37.5 24.9512-39.3066 22.7051-39.3066C20.4102-39.3066 18.6035-37.5 18.6035-35.2051C18.6035-32.9102 20.4102-31.1035 22.7051-31.1035ZM37.793-34.082L90.9668-34.082C91.6016-34.082 92.0898-34.5703 92.0898-35.2051C92.0898-35.8398 91.6016-36.3281 90.9668-36.3281L37.793-36.3281C37.1582-36.3281 36.7188-35.8398 36.7188-35.2051C36.7188-34.5703 37.1582-34.082 37.793-34.082ZM31.543-8.69141C33.7891-8.69141 35.6445-10.5469 35.6445-12.793C35.6445-15.0879 33.7891-16.8945 31.543-16.8945C29.248-16.8945 27.4414-15.0879 27.4414-12.793C27.4414-10.5469 29.248-8.69141 31.543-8.69141ZM46.6309-11.6699L99.8047-11.6699C100.439-11.6699 100.928-12.1582 100.928-12.793C100.928-13.4277 100.439-13.916 99.8047-13.916L46.6309-13.916C45.9961-13.916 45.5566-13.4277 45.5566-12.793C45.5566-12.1582 45.9961-11.6699 46.6309-11.6699Z"/>
  </g>
 </g>
</svg>
